# xmcd CD database file
#
# Track frame offsets:
#	150
#	15577
#	30924
#	42066
#	57800
#	70750
#	87344
#	98250
#	111794
#	125813
#	141087
#	150863
#	163746
#
# Disc length: 2366 seconds
#
# Revision: 0
# Processed by: cddbd v1.5.1PL0 Copyright (c) Steve Scherf et al.
# Submitted via: CDex 1.50
#
DISCID=93093c0d
DTITLE=Cajun and Zydeco Instrumentals - Best of
DYEAR=2000
DGENRE=Jazz
TTITLE0=Hippy Ti Yo
TTITLE1=Don't Mess With My Toot Toot
TTITLE2=My Zydeco Shoes
TTITLE3=Lacassine Special
TTITLE4=Jolie Blonde
TTITLE5=There Is Something On Your Mind
TTITLE6=Meeko The Cajun
TTITLE7=Tu Le Ton Son Ton
TTITLE8=Eunice Blues
TTITLE9=Jambalaya
TTITLE10=Pick of the Litter
TTITLE11=No Scratch Blues
TTITLE12=Hot Steppin' Zydeco
EXTD=YEAR: 2000
EXTT0=
EXTT1=
EXTT2=
EXTT3=
EXTT4=
EXTT5=
EXTT6=
EXTT7=
EXTT8=
EXTT9=
EXTT10=
EXTT11=
EXTT12=
PLAYORDER=
